solid OpenSCAD_Model
  facet normal -1 0 0
    outer loop
      vertex 0 0 0
      vertex 0 10 10
      vertex 0 10 0
    endloop
  endfacet
  facet normal -1 -0 0
    outer loop
      vertex 0 10 10
      vertex 0 0 0
      vertex 0 0 10
    endloop
  endfacet
  facet normal -0 0 1
    outer loop
      vertex 0 10 10
      vertex 10 0 10
      vertex 10 10 10
    endloop
  endfacet
  facet normal 0 0 1
    outer loop
      vertex 10 0 10
      vertex 0 10 10
      vertex 0 0 10
    endloop
  endfacet
  facet normal 1 -0 0
    outer loop
      vertex 10 0 10
      vertex 10 10 0
      vertex 10 10 10
    endloop
  endfacet
  facet normal 1 0 0
    outer loop
      vertex 10 10 0
      vertex 10 0 10
      vertex 10 0 0
    endloop
  endfacet
  facet normal 0 1 -0
    outer loop
      vertex 10 10 0
      vertex 0 10 10
      vertex 10 10 10
    endloop
  endfacet
  facet normal 0 1 0
    outer loop
      vertex 0 10 10
      vertex 10 10 0
      vertex 0 10 0
    endloop
  endfacet
  facet normal 0 0 -1
    outer loop
      vertex 0 0 0
      vertex 10 10 0
      vertex 10 0 0
    endloop
  endfacet
  facet normal -0 0 -1
    outer loop
      vertex 10 10 0
      vertex 0 0 0
      vertex 0 10 0
    endloop
  endfacet
  facet normal 0 -1 0
    outer loop
      vertex 0 0 0
      vertex 10 0 10
      vertex 0 0 10
    endloop
  endfacet
  facet normal 0 -1 -0
    outer loop
      vertex 10 0 10
      vertex 0 0 0
      vertex 10 0 0
    endloop
  endfacet
  facet normal -1 0 0
    outer loop
      vertex 20 0 0
      vertex 20 10 10
      vertex 20 10 0
    endloop
  endfacet
  facet normal -1 -0 0
    outer loop
      vertex 20 10 10
      vertex 20 0 0
      vertex 20 0 10
    endloop
  endfacet
  facet normal -0 0 1
    outer loop
      vertex 20 10 10
      vertex 30 0 10
      vertex 30 10 10
    endloop
  endfacet
  facet normal 0 0 1
    outer loop
      vertex 30 0 10
      vertex 20 10 10
      vertex 20 0 10
    endloop
  endfacet
  facet normal 1 -0 0
    outer loop
      vertex 30 0 10
      vertex 30 10 0
      vertex 30 10 10
    endloop
  endfacet
  facet normal 1 0 0
    outer loop
      vertex 30 10 0
      vertex 30 0 10
      vertex 30 0 0
    endloop
  endfacet
  facet normal 0 0 -1
    outer loop
      vertex 20 0 0
      vertex 30 10 0
      vertex 30 0 0
    endloop
  endfacet
  facet normal -0 0 -1
    outer loop
      vertex 30 10 0
      vertex 20 0 0
      vertex 20 10 0
    endloop
  endfacet
  facet normal 0 -1 0
    outer loop
      vertex 20 0 0
      vertex 30 0 10
      vertex 20 0 10
    endloop
  endfacet
  facet normal 0 -1 -0
    outer loop
      vertex 30 0 10
      vertex 20 0 0
      vertex 30 0 0
    endloop
  endfacet
  facet normal 0 1 -0
    outer loop
      vertex 30 10 0
      vertex 20 10 10
      vertex 30 10 10
    endloop
  endfacet
  facet normal 0 1 0
    outer loop
      vertex 20 10 10
      vertex 30 10 0
      vertex 20 10 0
    endloop
  endfacet
  facet normal -1 0 0
    outer loop
      vertex 50 0 0
      vertex 50 10 10
      vertex 50 10 0
    endloop
  endfacet
  facet normal -1 -0 0
    outer loop
      vertex 50 10 10
      vertex 50 0 0
      vertex 50 0 10
    endloop
  endfacet
  facet normal -0 0 1
    outer loop
      vertex 50 10 10
      vertex 60 0 10
      vertex 60 10 10
    endloop
  endfacet
  facet normal 0 0 1
    outer loop
      vertex 60 0 10
      vertex 50 10 10
      vertex 50 0 10
    endloop
  endfacet
  facet normal 1 -0 0
    outer loop
      vertex 60 0 10
      vertex 60 10 0
      vertex 60 10 10
    endloop
  endfacet
  facet normal 1 0 0
    outer loop
      vertex 60 10 0
      vertex 60 0 10
      vertex 60 0 0
    endloop
  endfacet
  facet normal 0 1 -0
    outer loop
      vertex 60 10 0
      vertex 50 10 10
      vertex 60 10 10
    endloop
  endfacet
  facet normal 0 1 0
    outer loop
      vertex 50 10 10
      vertex 60 10 0
      vertex 50 10 0
    endloop
  endfacet
  facet normal 0 0 -1
    outer loop
      vertex 50 0 0
      vertex 60 10 0
      vertex 60 0 0
    endloop
  endfacet
  facet normal -0 0 -1
    outer loop
      vertex 60 10 0
      vertex 50 0 0
      vertex 50 10 0
    endloop
  endfacet
  facet normal 0 -1 0
    outer loop
      vertex 50 0 0
      vertex 60 0 10
      vertex 50 0 10
    endloop
  endfacet
  facet normal 0 -1 -0
    outer loop
      vertex 60 0 10
      vertex 50 0 0
      vertex 60 0 0
    endloop
  endfacet
  facet normal -1 0 0
    outer loop
      vertex 100 0 0
      vertex 100 10 10
      vertex 100 10 0
    endloop
  endfacet
  facet normal -1 -0 0
    outer loop
      vertex 100 10 10
      vertex 100 0 0
      vertex 100 0 10
    endloop
  endfacet
  facet normal -0 0 1
    outer loop
      vertex 100 10 10
      vertex 110 0 10
      vertex 110 10 10
    endloop
  endfacet
  facet normal 0 0 1
    outer loop
      vertex 110 0 10
      vertex 100 10 10
      vertex 100 0 10
    endloop
  endfacet
  facet normal 1 -0 0
    outer loop
      vertex 110 0 10
      vertex 110 10 0
      vertex 110 10 10
    endloop
  endfacet
  facet normal 1 0 0
    outer loop
      vertex 110 10 0
      vertex 110 0 10
      vertex 110 0 0
    endloop
  endfacet
  facet normal 0 1 -0
    outer loop
      vertex 110 10 0
      vertex 100 10 10
      vertex 110 10 10
    endloop
  endfacet
  facet normal 0 1 0
    outer loop
      vertex 100 10 10
      vertex 110 10 0
      vertex 100 10 0
    endloop
  endfacet
  facet normal 0 0 -1
    outer loop
      vertex 100 0 0
      vertex 110 10 0
      vertex 110 0 0
    endloop
  endfacet
  facet normal -0 0 -1
    outer loop
      vertex 110 10 0
      vertex 100 0 0
      vertex 100 10 0
    endloop
  endfacet
  facet normal 0 -1 0
    outer loop
      vertex 100 0 0
      vertex 110 0 10
      vertex 100 0 10
    endloop
  endfacet
  facet normal 0 -1 -0
    outer loop
      vertex 110 0 10
      vertex 100 0 0
      vertex 110 0 0
    endloop
  endfacet
endsolid OpenSCAD_Model
